<?xml version="1.0" standalone="no"?>
<!DOCTYPE svg PUBLIC "-//W3C//DTD SVG 20010904//EN"
 "http://www.w3.org/TR/2001/REC-SVG-20010904/DTD/svg10.dtd">
<svg version="1.0" xmlns="http://www.w3.org/2000/svg"
 width="400.000000pt" height="400.000000pt" viewBox="0 0 400.000000 400.000000"
 preserveAspectRatio="xMidYMid meet">
<metadata>
Created by potrace 1.11, written by Peter Selinger 2001-2013
</metadata>
<g transform="translate(0.000000,400.000000) scale(0.100000,-0.100000)"
fill="#000000" stroke="none">
<path d="M3740 3880 c0 -29 -4 -40 -15 -40 -11 0 -15 -11 -15 -40 0 -29 -4
-40 -15 -40 -8 0 -15 5 -15 10 0 6 -47 10 -120 10 l-120 0 0 -70 0 -70 -120 0
c-113 0 -120 1 -120 20 0 17 -7 20 -45 20 l-45 0 0 40 c0 29 -4 40 -15 40 -11
0 -15 -11 -15 -40 0 -22 5 -40 10 -40 6 0 10 -18 10 -40 0 -22 5 -40 10 -40 6
0 10 -18 10 -40 0 -29 -4 -40 -15 -40 -11 0 -15 11 -15 40 0 38 -2 40 -29 40
-26 0 -30 -4 -36 -41 -8 -46 -25 -36 -25 14 0 41 -19 32 -26 -13 -4 -24 -12
-40 -20 -40 -8 0 -15 -4 -15 -10 -3 -20 -4 -25 -12 -37 -5 -7 -17 -13 -28 -13
-10 0 -20 -6 -20 -12 -1 -7 -7 25 -13 72 l-12 85 -8 -82 c-6 -61 -12 -83 -22
-83 -11 0 -14 19 -16 83 -1 45 -3 63 -5 40 -5 -54 -23 -56 -23 -3 0 22 -4 40
-10 40 -5 0 -10 -18 -10 -40 0 -33 -3 -40 -19 -40 -14 0 -21 8 -24 28 -5 32
-12 -135 -8 -193 3 -51 -7 -107 -19 -100 -5 3 -9 71 -9 151 -1 140 -11 207
-24 153 -3 -13 -6 -82 -6 -153 0 -71 -3 -131 -6 -134 -3 -3 -5 34 -5 81 l0 87
-80 0 -80 0 0 -40 0 -40 -40 0 c-22 0 -40 5 -40 10 0 13 -59 13 -98 -1 -34
-12 -34 -29 -1 -29 15 0 19 -7 19 -32 0 -28 4 -33 25 -34 14 -1 33 -5 43 -9
16 -6 16 -7 0 -16 -10 -5 -38 -10 -64 -11 -36 0 -48 -5 -51 -18 -4 -14 -18
-19 -61 -23 -77 -7 -122 -17 -122 -28 0 -5 6 -9 13 -9 7 0 18 -9 25 -20 7 -12
8 -20 2 -20 -5 0 -10 4 -10 9 0 8 -21 17 -60 27 -8 2 -21 -4 -28 -14 -10 -14
-14 -14 -21 -3 -7 10 -12 8 -25 -10 l-16 -23 0 21 c0 23 31 59 65 74 15 7 12
8 -12 3 -26 -4 -33 -2 -33 10 0 9 5 16 10 16 6 0 9 5 8 11 -2 7 21 22 51 34
50 21 53 23 33 34 -18 9 -22 8 -27 -10 -6 -17 -12 -19 -33 -14 -15 4 -24 4
-20 0 4 -4 -7 -20 -24 -37 -16 -16 -32 -27 -35 -24 -7 7 16 76 40 114 l20 34
-28 -4 c-25 -3 -29 -9 -42 -58 -8 -30 -25 -66 -38 -80 -13 -14 -23 -34 -21
-45 2 -11 1 -14 -1 -7 -6 17 -33 15 -33 -3 0 -8 -4 -15 -10 -15 -14 0 -12 16
3 32 7 7 19 33 26 58 7 25 17 53 22 62 5 10 9 26 8 35 0 14 -2 15 -6 3 -3 -8
-13 -23 -21 -33 -16 -18 -16 -18 -23 0 -3 10 -6 0 -6 -25 0 -49 -10 -65 -24
-39 -11 18 -39 24 -39 7 0 -5 7 -13 16 -18 14 -8 13 -12 -10 -35 -14 -14 -26
-21 -26 -14 0 15 -49 57 -67 57 -7 0 -19 -11 -25 -25 -14 -32 -22 -31 -35 3
l-11 27 -1 -27 c-1 -16 -8 -28 -18 -31 -14 -4 -12 -5 5 -6 24 -1 31 -21 7 -21
-8 0 -31 -8 -51 -17 -28 -14 -38 -15 -41 -5 -7 18 -21 15 -28 -7 -3 -11 -11
-22 -18 -24 -7 -2 0 -2 16 0 21 4 27 1 27 -14 0 -13 -16 -27 -49 -44 -29 -14
-44 -27 -38 -31 6 -4 15 -2 19 5 5 7 8 2 8 -14 0 -26 -3 -27 -77 -37 -43 -6
-134 -14 -203 -17 -69 -3 -192 -10 -275 -15 -169 -11 -283 -12 -335 -5 -29 4
-31 3 -10 -4 17 -6 -4 -9 -70 -8 -52 0 -89 2 -82 4 25 9 -1 23 -44 23 -50 0
-59 15 -14 24 18 3 30 12 30 21 0 8 -3 14 -8 13 -4 -1 -23 1 -42 5 -27 6 -31
10 -20 17 8 5 11 12 7 17 -4 4 -17 1 -29 -6 -17 -11 -22 -11 -29 1 -5 7 -9 16
-9 19 0 15 -52 29 -71 19 -18 -10 -19 -8 -17 32 l3 43 -82 3 c-69 2 -83 0 -83
-13 0 -12 15 -15 80 -15 47 0 80 -4 80 -10 0 -5 -18 -10 -40 -10 -29 0 -40 -4
-40 -15 0 -11 -11 -15 -40 -15 l-40 0 0 -615 c0 -338 1 -615 3 -615 9 0 132
52 212 90 50 23 146 67 215 97 69 30 138 61 154 69 22 10 32 11 42 3 8 -6 11
-15 8 -20 -3 -5 0 -9 5 -9 12 0 14 -36 5 -92 -5 -26 -10 -35 -21 -31 -8 3 -13
14 -10 24 3 12 0 19 -9 19 -9 0 -14 -11 -14 -34 0 -34 -1 -35 -55 -47 -32 -7
-55 -18 -55 -25 0 -10 -11 -10 -51 2 -28 9 -54 13 -57 9 -3 -3 -6 -21 -5 -40
1 -19 -3 -35 -8 -35 -5 0 -9 12 -9 26 0 15 -4 23 -11 18 -6 -3 -9 -14 -6 -23
3 -13 -5 -16 -41 -18 -25 -1 -48 -6 -51 -12 -4 -6 -27 -17 -51 -26 -77 -26
-78 -27 -50 -36 18 -6 9 -7 -28 -4 -32 2 -50 0 -47 -5 3 -6 -10 -17 -29 -27
l-36 -17 0 -227 c0 -206 2 -227 17 -234 10 -3 19 -1 21 4 2 6 13 11 25 11 22
-1 22 -1 2 -13 -11 -7 -31 -21 -43 -32 -22 -20 -22 -24 -22 -247 1 -216 2
-228 20 -228 10 0 22 -4 25 -10 4 -6 -5 -10 -19 -10 -24 0 -26 -3 -26 -45 0
-49 5 -53 38 -29 24 16 56 16 55 -1 -2 -19 18 -45 33 -45 11 0 5 -10 -16 -31
-24 -25 -28 -34 -18 -40 18 -13 -10 -31 -37 -24 -11 2 -26 5 -32 5 -19 0 -16
18 5 23 13 4 11 5 -5 6 -18 1 -23 -4 -23 -24 0 -21 5 -25 28 -25 20 0 23 -3
13 -9 -8 -5 -20 -7 -28 -4 -9 4 -13 -5 -13 -31 0 -33 3 -36 40 -46 49 -13 58
-26 25 -34 -15 -4 -23 -11 -19 -17 3 -6 15 -9 25 -6 11 3 19 1 19 -5 0 -5 -9
-12 -19 -15 -13 -3 -18 -12 -16 -29 2 -20 -2 -24 -26 -24 -19 0 -29 -5 -29
-15 0 -8 9 -15 20 -15 13 0 18 -5 14 -15 -4 -8 -12 -15 -20 -15 -17 0 -18 -16
-1 -24 9 -5 9 -7 0 -12 -9 -4 -13 -33 -13 -95 l0 -89 329 0 329 0 0 49 c1 27
7 65 16 84 8 20 12 38 9 41 -10 9 -9 76 1 76 4 0 5 12 2 26 -4 14 -2 32 4 39
8 10 8 24 2 49 -7 23 -7 36 0 38 5 2 10 23 11 46 1 26 7 42 15 42 6 0 12 5 12
10 0 6 -6 10 -12 10 -9 0 -9 3 1 9 11 7 13 23 8 68 -4 39 -2 64 5 71 8 8 7 13
-5 17 -9 4 -13 13 -10 21 3 9 -1 14 -11 14 -14 0 -15 4 -6 20 6 11 8 24 5 29
-3 5 1 12 7 15 10 5 10 7 0 12 -10 5 -10 9 -1 20 6 7 9 20 6 28 -4 10 -1 13 7
10 8 -3 17 -1 20 5 3 5 -8 12 -26 16 -66 13 -68 14 -58 40 5 12 7 25 4 28 -2
2 0 16 6 31 8 23 7 28 -13 36 -12 5 -18 9 -13 9 5 1 2 8 -5 17 -17 20 -22 54
-8 54 5 0 7 4 4 10 -3 5 -1 18 4 28 7 13 6 23 -2 32 -10 10 -8 12 10 7 13 -3
25 -1 28 4 3 4 -6 11 -20 15 -29 7 -30 10 -11 30 21 20 33 17 40 -8 4 -18 8
-20 18 -10 6 6 23 12 37 12 33 1 68 25 49 34 -10 5 -10 7 0 12 19 9 14 22 -10
27 l-23 4 23 2 c12 0 22 6 22 12 0 5 5 7 11 3 19 -11 0 68 -19 82 -16 12 -16
13 1 19 18 8 24 35 6 35 -6 0 -8 9 -4 20 4 12 2 20 -5 20 -6 0 -9 4 -6 9 3 5
-1 14 -9 21 -11 9 -12 16 -5 25 6 7 9 19 8 26 -5 23 39 22 55 -2 9 -11 20 -18
25 -15 6 3 13 0 16 -6 4 -9 5 -8 5 2 -2 34 2 42 32 52 22 7 27 14 20 21 -16
16 -13 27 8 27 26 0 33 29 35 144 1 67 6 101 14 104 7 2 12 15 12 28 0 32 17
64 33 64 18 0 67 -23 67 -32 0 -4 -8 -12 -17 -17 -16 -9 -15 -10 5 -11 18 0
22 -4 17 -19 -9 -30 10 -33 35 -6 24 26 64 33 75 14 8 -12 107 -9 116 4 8 10
59 -10 59 -23 0 -6 -7 -13 -15 -16 -8 -4 -13 -10 -10 -14 3 -5 -8 -11 -25 -15
-16 -4 -30 -11 -30 -16 0 -14 -83 -53 -109 -50 -18 2 -22 -1 -18 -13 5 -12 0
-16 -16 -16 -12 0 -31 -7 -42 -16 -16 -12 -17 -17 -6 -23 10 -7 8 -12 -9 -24
-21 -14 -12 -35 10 -22 6 3 10 1 10 -4 0 -6 -4 -11 -10 -11 -5 0 -10 -8 -10
-17 0 -10 -7 -26 -15 -36 -7 -11 -11 -25 -8 -33 3 -9 0 -14 -8 -12 -7 2 -14
-4 -16 -13 -3 -12 3 -17 19 -18 13 0 39 -3 58 -6 30 -6 40 -2 66 22 86 81 142
126 169 137 42 18 63 45 45 56 -11 7 -11 11 -1 24 8 9 10 16 5 16 -5 0 -2 5 6
10 13 8 12 10 -3 10 -14 0 -10 8 19 35 20 19 39 35 42 35 10 0 31 36 32 53 0
10 4 16 8 13 13 -8 42 32 36 49 -4 8 -10 15 -15 15 -5 0 -8 16 -6 34 3 23 -1
37 -9 40 -8 3 -11 12 -8 21 5 11 0 15 -17 15 -21 0 -20 2 9 17 20 10 32 22 30
32 -3 14 -24 16 -138 18 -179 4 -190 4 -190 14 0 5 -18 9 -41 9 -36 0 -40 2
-37 22 6 42 85 41 169 -2 30 -15 88 -22 132 -16 29 5 62 22 107 56 36 27 73
49 83 50 12 0 17 8 17 30 0 17 -4 29 -9 28 -5 -2 -22 15 -38 37 -54 73 -143
103 -207 70 -15 -8 -34 -15 -40 -15 -14 0 -55 -31 -114 -87 -46 -43 -100 -63
-166 -63 -20 0 -36 -4 -36 -10 0 -5 -5 -10 -11 -10 -5 0 -8 4 -4 9 3 6 -2 14
-11 19 -15 8 -15 11 5 31 11 11 21 32 21 46 0 14 6 25 13 25 8 0 18 10 24 21
6 16 20 23 47 26 36 4 37 3 34 -24 -3 -26 -1 -28 32 -25 26 2 44 13 72 44 43
48 49 75 17 80 -12 2 -27 12 -33 23 -6 11 -13 22 -16 25 -13 13 -30 52 -30 70
0 14 7 20 22 20 17 0 19 3 10 12 -15 15 -16 45 -1 53 5 4 37 -21 71 -54 33
-34 62 -60 65 -58 2 3 21 -3 41 -13 53 -26 62 -5 25 60 -15 28 -31 50 -34 50
-3 0 -19 11 -35 25 -17 15 -36 23 -46 19 -30 -9 -20 16 10 27 15 5 31 9 36 8
13 -1 26 23 18 36 -4 5 -8 20 -10 32 -2 20 1 21 33 16 29 -5 34 -3 30 9 -8 20
20 18 61 -4 17 -10 34 -14 38 -11 9 9 93 -35 100 -52 3 -8 10 -15 16 -15 16 0
12 25 -10 53 -24 30 -26 47 -5 47 8 0 15 -6 15 -13 0 -13 69 -47 95 -47 11 0
12 6 3 30 -11 33 -3 116 13 125 5 4 9 -1 9 -11 0 -11 6 -15 20 -11 15 4 25 -2
38 -21 32 -52 76 -103 110 -129 l35 -26 -6 44 c-3 24 -15 63 -27 86 -23 48
-27 88 -7 79 6 -3 20 -9 30 -12 9 -4 17 -13 17 -20 0 -8 5 -14 10 -14 6 0 10
-8 10 -17 0 -15 2 -14 15 3 14 18 14 18 15 -10 0 -33 40 -76 71 -76 21 0 26
-16 7 -23 -7 -2 -9 -8 -5 -13 4 -5 12 -2 17 6 8 13 13 13 30 2 11 -7 25 -10
30 -7 6 4 10 1 10 -4 0 -6 -12 -11 -27 -11 -14 0 -23 -3 -20 -6 7 -7 -76 -74
-91 -74 -15 0 -42 -72 -44 -117 -1 -48 19 -103 38 -103 24 0 109 51 136 83 15
17 35 54 44 81 21 65 57 140 77 161 15 14 16 13 12 -14 -2 -16 -10 -42 -19
-59 -9 -17 -16 -36 -16 -42 0 -11 -32 -87 -58 -135 l-15 -30 21 18 c11 10 31
18 44 16 33 -4 93 16 124 40 15 12 32 21 39 21 24 0 95 60 95 80 0 16 7 20 30
20 17 0 30 -4 30 -10 0 -15 48 -12 53 3 3 9 10 7 25 -6 11 -11 18 -25 15 -33
-7 -20 26 -18 49 2 16 16 18 16 24 0 3 -9 12 -16 20 -16 16 0 19 -16 4 -25 -6
-3 -13 1 -16 9 -8 20 -24 21 -24 1 0 -9 7 -18 16 -22 12 -5 10 -9 -11 -23 -21
-14 -23 -19 -11 -23 9 -4 28 4 43 16 16 13 36 21 46 19 20 -4 23 -18 5 -25 -7
-3 -4 -6 7 -6 44 -2 82 -102 45 -116 -12 -5 -12 -7 0 -15 11 -7 11 -11 1 -24
-12 -14 -10 -16 15 -16 26 -1 27 -2 12 -14 -10 -7 -14 -16 -10 -20 4 -4 -7 -5
-23 -2 l-30 6 28 -11 c21 -8 25 -14 17 -24 -6 -8 -7 -16 -2 -19 5 -3 6 -23 2
-46 -4 -22 -5 -40 -1 -40 3 0 -2 -5 -12 -11 -9 -6 -15 -14 -12 -20 4 -5 0 -9
-8 -9 -9 0 -14 -10 -13 -25 0 -14 -3 -25 -7 -24 -9 0 -57 -52 -57 -62 0 -4
-12 -10 -26 -13 -17 -5 -24 -12 -20 -21 3 -8 0 -15 -7 -15 -8 0 -6 -4 3 -10
12 -8 10 -10 -10 -11 -51 -3 -55 -4 -58 -24 -2 -17 -11 -20 -53 -22 -69 -2
-89 19 -84 82 4 34 1 47 -10 51 -17 7 -21 34 -5 34 6 0 10 6 10 14 0 24 -42
23 -90 -1 -25 -13 -50 -23 -56 -23 -14 0 -27 -26 -29 -56 -1 -19 3 -20 50 -16
l50 4 -30 -26 c-18 -15 -43 -25 -62 -26 -34 0 -38 -7 -27 -48 6 -22 7 -22 26
-5 20 17 20 17 17 -2 -3 -15 -12 -20 -34 -20 -28 0 -30 2 -27 33 4 36 -14 45
-21 10 -3 -22 -4 -22 -15 6 -10 22 -15 26 -26 17 -35 -29 -35 57 -1 135 31 69
31 71 0 115 -13 20 -21 39 -18 43 4 3 -1 6 -9 6 -10 0 -15 -8 -14 -22 1 -19
-8 -26 -49 -40 -27 -9 -57 -17 -66 -17 -29 -1 -119 -90 -119 -117 0 -21 -5
-24 -34 -24 -36 0 -55 -15 -39 -31 5 -5 45 -12 87 -15 101 -6 96 -5 123 -36
l23 -26 -27 -29 c-51 -53 -92 -108 -93 -121 0 -8 9 -16 20 -19 22 -6 26 -18
10 -28 -5 -3 -10 -15 -10 -26 0 -13 -6 -19 -17 -17 -13 2 -17 -3 -15 -16 3
-15 -1 -17 -22 -12 -28 7 -36 -8 -11 -18 13 -4 14 -10 5 -26 -6 -11 -17 -20
-24 -20 -7 0 -21 -9 -31 -20 -10 -12 -24 -19 -31 -16 -7 3 -15 -1 -17 -8 -7
-17 -107 -19 -107 -2 -1 16 -40 -33 -40 -50 0 -8 5 -14 10 -14 6 0 10 5 10 10
0 6 9 1 21 -11 16 -16 23 -18 35 -8 8 6 14 18 14 25 0 8 5 14 10 14 6 0 10
-10 10 -22 1 -23 1 -23 16 -3 11 14 18 16 21 8 7 -20 20 -15 28 10 l8 22 4
-23 c6 -32 28 -37 72 -17 21 9 47 15 57 12 13 -3 11 -5 -8 -6 -33 -1 -37 -16
-6 -24 40 -11 8 -22 -84 -30 -9 -1 -14 -6 -10 -12 4 -5 7 -17 7 -25 0 -10 11
-15 35 -15 19 0 40 -3 46 -7 7 -4 43 -12 80 -17 40 -6 73 -16 80 -25 8 -11 14
-12 21 -5 24 24 42 -11 23 -41 -8 -13 -11 -12 -24 5 -15 20 -15 20 -16 -2 0
-25 -15 -39 -25 -23 -9 15 -25 12 -25 -5 0 -8 -8 -15 -19 -15 -10 0 -30 -11
-44 -24 -21 -20 -23 -25 -11 -30 23 -9 26 -7 19 7 -4 6 0 3 9 -7 12 -15 18
-17 30 -7 11 9 15 9 19 -1 4 -10 8 -10 16 2 9 12 11 9 11 -16 0 -26 6 -35 35
-48 19 -9 37 -21 40 -26 10 -17 32 -11 38 10 4 17 11 19 37 13 26 -5 32 -3 28
8 -3 9 -23 15 -59 17 -100 4 -123 18 -73 41 27 12 39 8 39 -11 0 -6 6 -13 13
-15 6 -3 12 0 12 6 0 6 7 11 15 11 8 0 15 -4 15 -10 0 -5 7 -10 15 -10 13 0
20 19 16 43 -1 4 34 7 76 5 67 -3 78 -6 81 -22 2 -10 0 -16 -5 -13 -4 3 -8 -8
-8 -24 0 -16 3 -29 8 -29 4 0 7 7 7 15 0 25 18 17 34 -17 19 -38 20 -41 4 -31
-16 9 -67 4 -90 -8 -10 -5 -18 -18 -18 -28 0 -10 -7 -24 -15 -31 -18 -15 -28
-9 -93 50 l-23 21 -30 -26 c-17 -14 -37 -25 -46 -25 -9 0 -13 -6 -9 -15 5 -15
2 -16 -59 -19 -11 -1 -19 -7 -17 -13 2 -15 -10 -17 -23 -4 -16 15 -79 -2 -83
-23 -3 -14 1 -17 16 -12 11 4 39 0 63 -9 24 -8 53 -15 65 -15 29 0 85 -30 79
-41 -4 -5 0 -9 7 -9 10 0 11 -2 0 -8 -7 -5 -10 -16 -6 -25 7 -18 24 -23 24 -7
0 11 80 11 95 -1 6 -4 32 -3 59 2 26 5 52 7 56 4 5 -3 12 0 16 6 3 6 9 7 13 3
6 -8 27 -18 109 -48 49 -19 57 -30 38 -58 -9 -12 -19 -22 -21 -20 -11 5 -4
-14 10 -31 16 -19 12 -37 -9 -37 -27 0 -35 -22 -15 -43 11 -12 17 -27 15 -34
-3 -7 1 -13 9 -13 8 0 15 -5 15 -11 0 -5 -5 -7 -10 -4 -6 4 -17 2 -25 -5 -10
-9 -16 -7 -23 6 -8 14 -15 16 -32 8 l-21 -9 25 -30 c14 -17 26 -36 26 -43 0
-7 7 -15 15 -18 8 -4 15 -14 15 -23 0 -14 2 -14 11 -1 8 12 10 10 6 -10 -3
-14 -2 -34 2 -45 8 -21 21 56 21 128 0 20 5 37 10 37 6 0 10 9 10 20 0 12 7
20 16 20 12 0 15 6 10 25 -4 14 -9 45 -13 70 -3 25 -10 48 -15 52 -6 3 -7 -3
-3 -17 5 -15 4 -20 -4 -16 -14 9 -15 46 -1 46 15 0 12 27 -6 44 -14 15 -14 16
0 16 20 0 20 22 0 170 -8 63 -21 167 -29 230 -7 64 -18 127 -24 140 -5 14 -19
59 -31 100 -12 41 -27 93 -35 115 -8 22 -16 63 -19 90 -3 28 -10 66 -17 85
-15 47 -17 100 -4 100 16 0 40 -52 84 -180 60 -177 104 -290 137 -352 14 -26
14 -28 -5 -28 -13 0 -21 -6 -21 -17 0 -15 2 -16 10 -3 8 12 10 12 10 -5 3 -54
11 -115 24 -165 8 -30 19 -91 25 -135 6 -44 16 -105 23 -135 6 -30 12 -83 12
-118 1 -34 3 -62 6 -62 3 0 4 -18 2 -39 -4 -38 -3 -40 30 -46 19 -4 52 -5 73
-3 35 3 40 6 38 26 -2 18 2 22 27 22 27 0 30 -3 30 -31 0 -27 3 -30 28 -27 15
2 26 8 25 16 -2 6 -4 17 -5 24 -6 27 31 18 47 -11 9 -19 23 -31 35 -31 13 0
20 -7 20 -20 0 -18 -7 -20 -75 -20 l-75 0 0 -27 c0 -16 6 -50 14 -78 l13 -50
30 61 c25 51 32 60 46 52 23 -12 22 -18 -17 -98 -32 -65 -33 -69 -17 -84 26
-24 38 -20 51 19 13 38 21 43 40 20 10 -12 8 -23 -10 -60 -18 -37 -27 -45 -50
-45 -15 0 -39 9 -54 21 l-26 20 -26 -20 c-32 -26 -50 -27 -58 -4 -5 12 2 25
25 44 l32 26 -16 49 c-9 27 -19 70 -23 96 l-6 48 -59 0 c-42 0 -58 -4 -56 -12
4 -21 20 -28 65 -28 35 0 42 -3 42 -20 0 -17 -7 -20 -40 -20 -22 0 -40 -5 -40
-11 0 -5 -6 -7 -12 -3 -9 5 -10 4 -3 -4 6 -6 24 -12 40 -14 30 -3 30 -4 33
-70 3 -62 1 -68 -17 -68 -11 0 -23 -4 -26 -10 -3 -5 -1 -10 6 -10 12 0 24 -13
56 -58 15 -22 15 -24 -1 -40 -16 -16 -19 -15 -48 18 l-31 35 21 -38 c26 -45
27 -54 7 -37 -10 8 -15 9 -15 1 0 -14 38 -23 81 -19 29 3 34 7 37 31 4 34 30
47 47 23 13 -18 5 -80 -12 -97 -5 -5 -33 -12 -61 -16 -28 -3 -49 -10 -46 -14
3 -5 1 -9 -4 -9 -6 0 -6 -15 0 -40 l10 -40 529 0 529 0 0 1930 0 1930 -40 0
c-38 0 -40 2 -40 30 l0 30 -90 0 -90 0 0 -40z m-220 -160 c0 -38 -2 -40 -30
-40 -28 0 -30 2 -30 40 0 38 2 40 30 40 28 0 30 -2 30 -40z m427 -22 c-2 -13
-4 -3 -4 22 0 25 2 35 4 23 2 -13 2 -33 0 -45z m-118 -60 c0 -47 -12 -87 -21
-72 -9 14 3 114 13 114 5 0 9 -19 8 -42z m-62 -70 c-3 -7 -5 -2 -5 12 0 14 2
19 5 13 2 -7 2 -19 0 -25z m-1257 -298 c-19 -13 -30 -13 -30 0 0 6 10 10 23
10 18 0 19 -2 7 -10z m498 -31 c-2 -6 -8 -10 -13 -10 -5 0 -11 4 -13 10 -2 6
4 11 13 11 9 0 15 -5 13 -11z m-312 -36 c-10 -10 -19 5 -10 18 6 11 8 11 12 0
2 -7 1 -15 -2 -18z m-337 4 c-2 -1 -12 -9 -21 -16 -15 -12 -18 -11 -18 3 0 10
8 16 22 16 12 0 19 -1 17 -3z m618 -13 c-3 -3 -12 -4 -19 -1 -8 3 -5 6 6 6 11
1 17 -2 13 -5z m-892 -62 c17 -12 16 -39 -1 -46 -21 -8 -34 1 -34 23 0 28 15
38 35 23z m270 -32 c8 -13 -5 -13 -25 0 -13 8 -13 10 2 10 9 0 20 -4 23 -10z
m122 -26 c-3 -3 -12 -4 -19 -1 -8 3 -5 6 6 6 11 1 17 -2 13 -5z m-59 -18 c3
-3 -6 -6 -21 -6 -14 0 -28 4 -31 9 -6 9 42 6 52 -3z m475 7 c-13 -2 -35 -2
-50 0 -16 2 -5 4 22 4 28 0 40 -2 28 -4z m-2786 -49 c-3 -3 -12 -4 -19 -1 -8
3 -5 6 6 6 11 1 17 -2 13 -5z m1770 -36 c-3 -7 -5 -2 -5 12 0 14 2 19 5 13 2
-7 2 -19 0 -25z m443 -47 c8 -8 10 -11 4 -8 -6 4 -24 11 -40 17 -23 9 -25 13
-14 20 10 6 19 5 25 -3 6 -6 17 -18 25 -26z m-1961 5 c-2 -2 -17 -6 -34 -10
-22 -5 -26 -4 -15 4 14 9 59 15 49 6z m19 -54 c-26 -5 -22 -22 5 -23 l22 -2
-22 -4 c-42 -8 -25 -30 30 -39 28 -4 58 -7 64 -7 7 0 10 -3 8 -8 -3 -4 9 -13
27 -18 l33 -9 -35 -1 c-29 -1 -32 -3 -17 -12 10 -6 30 -8 46 -4 15 3 40 1 54
-4 35 -14 36 -35 1 -27 -14 4 -46 4 -71 0 -35 -5 -46 -12 -54 -32 -13 -34 -6
-38 36 -18 20 10 43 19 53 21 9 2 25 7 36 11 41 16 8 -20 -44 -48 -30 -16 -63
-38 -73 -49 -10 -11 -22 -17 -27 -14 -4 3 -10 -2 -14 -10 -7 -20 -26 -19 -26
1 0 8 -5 12 -10 9 -6 -4 -25 3 -44 14 -18 11 -36 17 -41 13 -4 -4 -4 4 0 16 7
23 7 23 -19 7 -25 -17 -26 -17 -36 9 -11 30 -4 56 15 56 8 0 16 4 19 9 3 4 -5
6 -17 4 -17 -3 -29 5 -52 36 -17 22 -35 41 -42 41 -18 0 -8 33 13 41 17 7 17
8 -4 8 -14 1 -21 5 -16 12 3 6 15 9 25 6 10 -3 23 1 28 7 7 8 39 13 88 12 43
0 70 -2 61 -4z m77 -12 l20 -9 -20 0 c-11 0 -29 4 -40 9 l-20 9 20 0 c11 0 29
-4 40 -9z m185 -160 c0 -5 -5 -10 -11 -10 -5 0 -7 5 -4 10 3 6 8 10 11 10 2 0
4 -4 4 -10z m87 -14 c-3 -8 -1 -17 6 -19 7 -2 -8 -7 -31 -12 -29 -4 -48 -3
-55 4 -8 8 -5 11 11 11 13 0 25 7 28 15 4 8 15 15 26 15 13 0 18 -5 15 -14z
m66 -63 c-7 -2 -19 -2 -25 0 -7 3 -2 5 12 5 14 0 19 -2 13 -5z m-46 -9 c-3 -3
-12 -4 -19 -1 -8 3 -5 6 6 6 11 1 17 -2 13 -5z m-292 -309 c20 -17 25 -25 14
-25 -8 0 -26 11 -39 25 -30 32 -14 32 25 0z m73 -51 c44 -21 53 -39 16 -30
-32 8 -54 24 -54 37 0 12 2 12 38 -7z m474 4 c-9 -9 -15 -9 -24 0 -9 9 -7 12
12 12 19 0 21 -3 12 -12z m-354 -27 c3 -9 0 -11 -8 -6 -7 4 -5 -4 5 -18 10
-15 22 -24 31 -20 9 3 14 -2 14 -16 0 -28 -40 -28 -65 -1 -10 11 -14 20 -10
20 5 0 4 5 -3 12 -21 21 -15 50 10 46 12 -2 23 -9 26 -17z m338 -44 c-3 -19
-18 -44 -31 -57 -24 -23 -26 -23 -39 -5 -7 10 -18 15 -24 11 -7 -4 -12 -2 -12
3 0 6 6 11 14 11 8 0 16 10 20 23 5 20 63 58 75 50 2 -1 1 -17 -3 -36z m-371
-47 c3 -6 -1 -7 -9 -4 -18 7 -21 14 -7 14 6 0 13 -4 16 -10z m1865 -40 c0 -5
-5 -10 -11 -10 -5 0 -7 5 -4 10 3 6 8 10 11 10 2 0 4 -4 4 -10z m-1550 -75 c0
-15 -27 -28 -34 -16 -3 4 -2 17 1 29 4 18 8 20 19 11 8 -6 14 -17 14 -24z
m-50 -5 c0 -5 -2 -10 -4 -10 -3 0 -8 5 -11 10 -3 6 -1 10 4 10 6 0 11 -4 11
-10z m1540 -49 c0 -4 -7 -8 -15 -8 -8 0 -15 6 -15 13 0 8 6 11 15 8 8 -4 15
-9 15 -13z m-1677 -60 c3 -27 27 -42 27 -16 0 9 4 14 8 11 5 -3 7 -42 6 -86
-3 -67 0 -89 17 -122 11 -22 18 -45 15 -51 -2 -7 -5 -4 -5 6 -1 9 -6 17 -12
17 -7 0 -9 -13 -5 -37 4 -21 2 -45 -3 -53 -19 -28 -33 6 -38 86 -2 43 -9 81
-14 85 -5 3 -12 23 -16 45 -3 21 -14 47 -25 57 -16 16 -17 21 -6 34 10 13 10
17 1 20 -20 7 -15 31 7 38 11 3 20 14 21 23 1 23 20 -26 22 -57z m149 17 c-15
-15 -24 -6 -16 16 5 12 10 14 17 7 8 -8 8 -14 -1 -23z m-652 -148 c0 -5 -7
-10 -15 -10 -8 0 -15 5 -15 10 0 6 7 10 15 10 8 0 15 -4 15 -10z m-167 -107
c-7 -2 -21 -2 -30 0 -10 3 -4 5 12 5 17 0 24 -2 18 -5z m2072 -153 c3 -5 -3
-10 -15 -10 -12 0 -18 5 -15 10 3 6 10 10 15 10 5 0 12 -4 15 -10z m285 -94
c0 -2 -9 -6 -20 -9 -11 -3 -20 -1 -20 4 0 5 9 9 20 9 11 0 20 -2 20 -4z m65
-77 c-11 -4 -29 -8 -39 -8 -18 -1 -18 0 -1 19 14 16 21 17 39 8 20 -11 20 -11
1 -19z m312 -131 c-3 -8 -6 -5 -6 6 -1 11 2 17 5 13 3 -3 4 -12 1 -19z m20
-50 c-3 -8 -6 -5 -6 6 -1 11 2 17 5 13 3 -3 4 -12 1 -19z m-2635 -75 c-5 -16
-24 -16 -56 -2 -29 13 -24 33 5 24 14 -5 19 -2 19 11 0 16 2 16 19 -2 10 -10
16 -25 13 -31z m-96 -252 c-4 -5 -13 -8 -22 -4 -11 4 -12 8 -3 20 14 16 36 2
25 -16z m224 -11 c0 -5 -5 -10 -11 -10 -5 0 -7 5 -4 10 3 6 8 10 11 10 2 0 4
-4 4 -10z m-214 -47 c4 -33 -12 -46 -22 -18 -4 8 -11 15 -16 15 -6 0 -5 -6 2
-15 11 -13 8 -15 -15 -15 -23 0 -26 2 -15 15 9 11 9 15 1 15 -9 0 -9 5 -1 21
8 14 19 19 37 17 21 -2 26 -9 29 -35z m37 12 c0 -6 -8 -11 -19 -12 -10 -2 -13
0 -6 3 6 3 9 10 6 16 -4 6 -1 9 5 7 7 -3 13 -9 14 -14z m-63 -75 c0 -5 -4 -10
-10 -10 -5 0 -10 5 -10 10 0 6 5 10 10 10 6 0 10 -4 10 -10z m247 -22 c-6 -4
-16 -3 -22 3 -6 6 -5 13 5 19 9 6 17 5 22 -3 4 -6 2 -15 -5 -19z m2373 -19 c0
-5 -4 -9 -10 -9 -5 0 -10 7 -10 16 0 8 5 12 10 9 6 -3 10 -10 10 -16z m-2344
-83 c8 -22 -14 -56 -36 -56 -27 0 -29 56 -2 63 30 8 32 7 38 -7z m29 -16 c3
-5 1 -10 -4 -10 -6 0 -11 5 -11 10 0 6 2 10 4 10 3 0 8 -4 11 -10z m-12 -120
c16 0 26 -4 23 -9 -10 -15 -89 -8 -94 8 -3 10 1 12 19 8 13 -4 37 -7 52 -7z
m10 -60 c-8 -17 -12 -34 -8 -40 3 -6 -4 -10 -17 -11 -13 -1 -38 -2 -55 -4 -18
-1 -33 1 -33 6 0 5 10 10 23 10 12 1 29 2 39 3 9 1 20 4 24 9 7 7 -8 11 -36 8
-8 -1 -4 6 10 14 24 16 24 16 3 12 -13 -3 -23 -2 -23 2 0 14 8 17 48 18 l40 2
-15 -29z m-98 10 c3 -5 -1 -10 -9 -10 -9 0 -16 5 -16 10 0 6 4 10 9 10 6 0 13
-4 16 -10z m95 -115 c0 -8 -4 -15 -9 -15 -6 0 -16 -12 -23 -27 -7 -16 -23 -29
-35 -31 -14 -2 -20 -8 -16 -18 3 -9 -2 -14 -16 -14 -30 0 -26 -16 7 -26 l27
-7 -30 -7 c-45 -11 -75 -11 -75 0 0 6 7 10 15 10 9 0 12 6 9 15 -4 8 -1 15 5
15 6 0 11 5 11 11 0 5 -4 8 -9 4 -19 -11 -20 13 -1 30 11 10 20 24 20 31 0 12
68 40 103 43 9 0 17 -6 17 -14z m2773 -84 c42 -56 44 -62 18 -78 -16 -10 -23
-5 -59 45 -32 42 -39 59 -31 69 19 22 32 15 72 -36z m-2948 -11 c-3 -5 -16
-10 -28 -9 -21 0 -21 1 -2 9 28 12 37 12 30 0z m105 -70 c-20 -13 -53 -13 -45
0 3 6 18 10 33 10 21 0 24 -2 12 -10z m-75 -10 c3 -5 -3 -10 -15 -10 -12 0
-18 5 -15 10 3 6 10 10 15 10 5 0 12 -4 15 -10z m82 -16 c-3 -3 -12 -4 -19 -1
-8 3 -5 6 6 6 11 1 17 -2 13 -5z m-112 -14 c3 -5 1 -10 -4 -10 -6 0 -11 5 -11
10 0 6 2 10 4 10 3 0 8 -4 11 -10z m55 6 c0 -2 -7 -7 -16 -10 -8 -3 -12 -2 -9
4 6 10 25 14 25 6z m46 -31 c-36 -19 -47 -19 -22 0 11 8 27 15 35 15 9 0 3 -7
-13 -15z"/>
<path d="M220 2830 c0 -5 5 -10 10 -10 6 0 10 5 10 10 0 6 -4 10 -10 10 -5 0
-10 -4 -10 -10z"/>
<path d="M431 2634 c0 -11 3 -14 6 -6 3 7 2 16 -1 19 -3 4 -6 -2 -5 -13z"/>
<path d="M3210 3720 c0 -22 5 -40 10 -40 6 0 10 18 10 40 0 22 -4 40 -10 40
-5 0 -10 -18 -10 -40z"/>
<path d="M3263 3720 c0 -25 2 -35 4 -22 2 12 2 32 0 45 -2 12 -4 2 -4 -23z"/>
<path d="M2131 3709 c-18 -16 -36 -28 -39 -25 -12 13 -32 -19 -32 -50 0 -19
-3 -34 -8 -34 -4 0 -13 -15 -20 -32 -7 -18 -18 -41 -23 -51 -6 -10 -7 -27 -4
-37 3 -10 1 -21 -5 -25 -6 -3 -8 -11 -5 -16 4 -5 -1 -9 -10 -9 -9 0 -14 -4
-10 -9 3 -5 1 -12 -5 -16 -17 -10 -11 -25 10 -25 11 0 20 5 20 10 0 6 6 10 14
10 16 0 28 24 20 44 -3 8 0 17 5 21 6 3 9 11 6 16 -8 13 4 49 16 49 25 0 68
78 50 90 -6 3 -2 13 10 24 12 9 23 15 26 12 3 -3 14 3 23 14 10 12 24 18 33
14 19 -7 28 7 20 34 -8 33 -51 28 -92 -9z"/>
<path d="M2210 3652 c0 -7 -12 -17 -26 -22 -15 -6 -22 -14 -18 -22 4 -6 3 -8
-3 -5 -5 3 -18 -3 -27 -15 -16 -18 -16 -20 -2 -15 20 8 76 -3 76 -14 0 -5 -11
-9 -25 -9 -28 0 -75 -27 -75 -42 0 -6 13 -8 30 -4 17 3 30 1 30 -4 0 -6 -8
-10 -19 -10 -23 0 -47 -25 -31 -35 15 -9 12 -35 -4 -35 -8 0 -21 7 -30 15 -8
8 -17 11 -20 6 -3 -5 1 -14 9 -21 8 -7 15 -18 15 -25 0 -12 19 -17 112 -31 37
-6 38 -5 36 22 -1 16 -8 35 -15 42 -18 18 -16 32 3 32 13 0 14 3 5 14 -8 9 -8
22 -2 37 11 30 6 128 -8 142 -8 8 -11 7 -11 -1z m-24 -209 c-10 -10 -19 5 -10
18 6 11 8 11 12 0 2 -7 1 -15 -2 -18z m-9 -19 c-3 -3 -12 -4 -19 -1 -8 3 -5 6
6 6 11 1 17 -2 13 -5z"/>
<path d="M2880 3610 c0 -5 18 -10 40 -10 22 0 40 5 40 10 0 6 -18 10 -40 10
-22 0 -40 -4 -40 -10z"/>
<path d="M2560 3530 c0 -5 18 -10 40 -10 22 0 40 5 40 10 0 6 -18 10 -40 10
-22 0 -40 -4 -40 -10z"/>
<path d="M2070 3490 c-8 -5 -10 -10 -5 -10 6 0 17 5 25 10 8 5 11 10 5 10 -5
0 -17 -5 -25 -10z"/>
<path d="M2560 3480 c0 -17 7 -20 40 -20 33 0 40 3 40 20 0 17 -7 20 -40 20
-33 0 -40 -3 -40 -20z"/>
<path d="M1920 3399 c0 -5 5 -7 10 -4 6 3 10 8 10 11 0 2 -4 4 -10 4 -5 0 -10
-5 -10 -11z"/>
<path d="M1915 3370 c-3 -5 -1 -10 4 -10 6 0 11 5 11 10 0 6 -2 10 -4 10 -3 0
-8 -4 -11 -10z"/>
<path d="M2100 3330 c0 -4 15 -15 33 -24 30 -15 31 -16 7 -16 -20 0 -22 -2
-10 -10 8 -5 11 -10 5 -10 -5 0 -1 -8 10 -17 19 -15 19 -15 -8 -9 -21 5 -28 3
-25 -6 3 -8 23 -13 54 -13 41 0 49 3 46 18 -2 9 3 17 11 17 7 0 14 7 14 15 0
8 -4 15 -8 15 -3 0 -9 9 -12 20 -3 11 -13 20 -24 21 -10 0 -35 1 -55 3 -21 2
-38 0 -38 -4z"/>
<path d="M1918 3310 c-7 -24 -3 -38 8 -28 3 4 4 17 2 30 l-3 23 -7 -25z"/>
<path d="M2258 3283 c6 -2 18 -2 25 0 6 3 1 5 -13 5 -14 0 -19 -2 -12 -5z"/>
<path d="M1760 3230 c0 -5 5 -10 11 -10 5 0 7 5 4 10 -3 6 -8 10 -11 10 -2 0
-4 -4 -4 -10z"/>
<path d="M2065 3220 c-3 -5 -1 -10 4 -10 6 0 11 5 11 10 0 6 -2 10 -4 10 -3 0
-8 -4 -11 -10z"/>
<path d="M198 3166 c-7 -39 -4 -55 8 -44 3 3 4 23 2 44 l-3 39 -7 -39z"/>
<path d="M241 3104 c0 -11 3 -14 6 -6 3 7 2 16 -1 19 -3 4 -6 -2 -5 -13z"/>
<path d="M1328 2993 c6 -2 18 -2 25 0 6 3 1 5 -13 5 -14 0 -19 -2 -12 -5z"/>
<path d="M400 2980 c0 -5 18 -10 40 -10 22 0 40 5 40 10 0 6 -18 10 -40 10
-22 0 -40 -4 -40 -10z"/>
<path d="M448 2953 c7 -3 16 -2 19 1 4 3 -2 6 -13 5 -11 0 -14 -3 -6 -6z"/>
<path d="M2593 2582 c-13 -2 -23 -8 -23 -13 0 -6 -8 -8 -17 -5 -10 3 -25 1
-33 -4 -8 -5 -10 -10 -5 -11 6 -1 -8 -5 -30 -8 -32 -5 -41 -11 -43 -29 -5 -31
12 -49 51 -57 58 -12 68 -17 63 -30 -2 -7 2 -16 10 -19 8 -3 14 -12 14 -21 0
-18 33 -20 78 -4 30 10 31 11 29 75 -1 52 -5 65 -19 70 -10 3 -18 8 -18 12 -1
20 -37 48 -57 44z"/>
<path d="M2650 2340 c0 -5 -7 -7 -15 -4 -8 4 -15 1 -15 -5 0 -6 11 -11 25 -11
16 0 25 6 25 15 0 8 -4 15 -10 15 -5 0 -10 -4 -10 -10z"/>
<path d="M1672 2315 c0 -16 2 -22 5 -12 2 9 2 23 0 30 -3 6 -5 -1 -5 -18z"/>
<path d="M2336 2305 c4 -8 13 -15 21 -15 13 0 13 3 3 15 -7 8 -16 15 -21 15
-5 0 -6 -7 -3 -15z"/>
<path d="M2357 2255 c-29 -28 -31 -33 -18 -54 12 -19 50 -4 83 33 24 27 25 32
10 38 -31 12 -47 8 -75 -17z"/>
<path d="M1822 1976 c1 -10 8 -17 13 -17 15 1 12 24 -3 29 -9 3 -13 -2 -10
-12z"/>
<path d="M1950 1931 c0 -5 -16 -8 -35 -6 -25 3 -35 -1 -35 -10 0 -19 21 -30
30 -15 4 6 10 11 14 11 23 -3 35 1 40 14 3 8 1 15 -4 15 -6 0 -10 -4 -10 -9z"/>
<path d="M1950 1825 c0 -8 5 -15 10 -15 6 0 10 7 10 15 0 8 -4 15 -10 15 -5 0
-10 -7 -10 -15z"/>
<path d="M1440 1719 c0 -5 5 -7 10 -4 6 3 10 8 10 11 0 2 -4 4 -10 4 -5 0 -10
-5 -10 -11z"/>
<path d="M1693 1614 c-25 -28 -29 -49 -13 -59 11 -7 44 60 38 75 -2 5 -13 -2
-25 -16z"/>
<path d="M950 1600 c0 -5 5 -10 11 -10 5 0 7 5 4 10 -3 6 -8 10 -11 10 -2 0
-4 -4 -4 -10z"/>
<path d="M2420 1230 c0 -5 7 -10 16 -10 8 0 12 5 9 10 -3 6 -10 10 -16 10 -5
0 -9 -4 -9 -10z"/>
<path d="M2335 1160 c3 -5 8 -10 11 -10 2 0 4 5 4 10 0 6 -5 10 -11 10 -5 0
-7 -4 -4 -10z"/>
<path d="M2150 920 c0 -5 5 -10 10 -10 6 0 10 5 10 10 0 6 -4 10 -10 10 -5 0
-10 -4 -10 -10z"/>
<path d="M2396 866 c21 -15 30 -14 19 3 -3 6 -14 11 -23 11 -13 0 -13 -2 4
-14z"/>
<path d="M2330 822 c0 -15 8 -19 41 -20 22 -1 46 -5 51 -9 7 -3 8 -1 4 5 -4 7
-14 12 -22 12 -8 0 -14 7 -14 15 0 10 -10 15 -30 15 -22 0 -30 -5 -30 -18z"/>
<path d="M2440 831 c0 -9 24 -21 43 -21 6 0 2 7 -9 15 -22 17 -34 19 -34 6z"/>
<path d="M1930 815 c7 -8 17 -15 22 -15 6 0 5 7 -2 15 -7 8 -17 15 -22 15 -6
0 -5 -7 2 -15z"/>
<path d="M1965 780 c3 -5 8 -10 11 -10 2 0 4 5 4 10 0 6 -5 10 -11 10 -5 0 -7
-4 -4 -10z"/>
<path d="M2460 741 c0 -6 6 -11 13 -11 8 0 7 -4 -3 -11 -12 -8 -11 -10 5 -7
25 4 27 31 3 36 -10 2 -18 -1 -18 -7z"/>
<path d="M2080 705 c0 -18 19 -40 26 -32 4 4 0 15 -9 24 -9 10 -17 13 -17 8z"/>
<path d="M1997 644 c-3 -3 -3 -12 0 -20 4 -10 9 -11 23 -1 14 8 16 13 7 19
-15 9 -22 10 -30 2z"/>
<path d="M0 600 c0 -22 16 -26 40 -10 13 9 13 11 0 20 -24 16 -40 12 -40 -10z"/>
<path d="M2540 595 c0 -8 4 -15 10 -15 5 0 7 7 4 15 -4 8 -8 15 -10 15 -2 0
-4 -7 -4 -15z"/>
<path d="M2062 569 c2 -7 17 -14 34 -16 33 -5 23 10 -15 22 -17 5 -22 4 -19
-6z"/>
<path d="M2185 560 c3 -5 13 -10 21 -10 8 0 12 5 9 10 -3 6 -13 10 -21 10 -8
0 -12 -4 -9 -10z"/>
<path d="M2719 508 c0 -35 -2 -73 -5 -85 -2 -13 -1 -23 4 -23 11 0 32 52 25
63 -3 5 -5 32 -4 59 1 27 -3 48 -9 48 -6 0 -10 -27 -11 -62z"/>
<path d="M1920 533 c0 -3 16 -21 36 -38 26 -24 42 -31 61 -27 26 5 25 5 -12
25 -22 11 -45 26 -53 33 -14 15 -32 19 -32 7z"/>
<path d="M2861 393 c0 -11 3 -13 6 -5 2 6 9 10 14 6 5 -3 9 0 9 5 0 6 -7 11
-15 11 -8 0 -15 -8 -14 -17z"/>
<path d="M2072 385 c-11 -13 -8 -15 19 -15 27 0 30 2 19 15 -15 18 -21 18 -38
0z"/>
<path d="M0 340 c0 -5 4 -10 9 -10 6 0 13 5 16 10 3 6 -1 10 -9 10 -9 0 -16
-4 -16 -10z"/>
<path d="M1548 319 c-10 -7 -9 -9 3 -9 9 0 24 -11 33 -25 9 -14 21 -23 27 -20
10 7 39 -18 39 -33 0 -5 6 -22 14 -37 26 -49 96 -41 96 11 0 17 6 24 19 24 25
0 33 -13 33 -56 0 -41 -24 -71 -61 -77 -23 -4 -23 -4 6 -6 17 0 34 3 38 9 3 5
12 7 20 3 8 -3 15 0 15 6 0 22 74 6 75 -16 2 -20 17 -53 26 -53 5 0 9 -9 9
-20 0 -17 7 -20 48 -20 41 0 49 3 59 27 11 23 10 29 -7 45 -11 10 -20 15 -20
11 0 -10 -20 19 -20 30 0 4 9 7 20 7 11 0 20 -6 20 -14 0 -8 4 -17 8 -20 11
-7 -4 139 -17 161 -6 10 -11 13 -11 8 0 -6 -12 -12 -27 -13 -22 -1 -24 0 -13
8 16 10 13 12 -37 13 -19 0 -27 -4 -25 -14 3 -11 1 -12 -9 -1 -25 24 -29 11
-9 -29 22 -43 21 -65 -5 -75 -15 -6 -48 19 -38 29 3 4 -7 27 -22 52 -20 34
-32 46 -48 45 -35 -3 -40 -1 -28 14 9 11 6 15 -20 18 -39 6 -46 -10 -24 -52
17 -33 8 -60 -21 -60 -15 0 -66 101 -62 122 3 15 -62 21 -84 7z m182 -139 c0
-5 -5 -10 -11 -10 -5 0 -7 5 -4 10 3 6 8 10 11 10 2 0 4 -4 4 -10z m310 -45
c0 -12 -26 2 -32 17 -5 12 -13 15 -25 11 -15 -6 -16 -4 -5 9 12 15 15 14 37
-8 14 -14 25 -27 25 -29z"/>
<path d="M2744 308 c-12 -19 -14 -98 -4 -98 6 0 10 -12 10 -27 1 -25 2 -26 11
-10 6 11 8 30 3 45 -4 15 -6 44 -5 65 3 38 -2 46 -15 25z"/>
<path d="M2656 283 c-4 -9 -3 -20 1 -24 4 -4 9 3 9 17 2 28 -1 31 -10 7z"/>
<path d="M1600 231 c-6 -11 -6 -22 -1 -25 5 -3 11 5 13 19 6 30 2 32 -12 6z"/>
<path d="M1625 230 c-3 -5 -1 -10 4 -10 6 0 11 5 11 10 0 6 -2 10 -4 10 -3 0
-8 -4 -11 -10z"/>
<path d="M2760 131 c0 -6 4 -13 10 -16 6 -3 7 1 4 9 -7 18 -14 21 -14 7z"/>
<path d="M1245 100 c-3 -5 -18 -10 -33 -10 -33 0 -72 -25 -72 -46 0 -8 -7 -17
-15 -20 -47 -18 10 -24 234 -24 190 0 251 3 254 13 4 9 6 9 6 0 1 -18 28 -16
35 3 10 26 -3 34 -53 34 -33 0 -53 6 -68 20 -13 11 -39 21 -62 22 -23 2 -41 7
-41 11 0 4 -7 4 -16 -1 -9 -5 -34 -5 -58 -1 -57 11 -104 11 -111 -1z"/>
<path d="M1695 80 c-3 -5 -2 -10 4 -10 5 0 13 5 16 10 3 6 2 10 -4 10 -5 0
-13 -4 -16 -10z"/>
<path d="M1738 73 c7 -3 16 -2 19 1 4 3 -2 6 -13 5 -11 0 -14 -3 -6 -6z"/>
<path d="M1836 71 c-4 -7 -5 -15 -2 -18 9 -9 19 4 14 18 -4 11 -6 11 -12 0z"/>
<path d="M1650 66 c0 -2 7 -6 15 -10 8 -3 15 -1 15 4 0 6 -7 10 -15 10 -8 0
-15 -2 -15 -4z"/>
<path d="M1728 35 c-3 -13 -3 -27 0 -30 10 -9 51 -5 58 6 4 7 0 9 -14 5 -22
-7 -39 8 -22 19 15 9 12 25 -4 25 -7 0 -16 -11 -18 -25z"/>
<path d="M1672 20 c0 -14 2 -19 5 -12 2 6 2 18 0 25 -3 6 -5 1 -5 -13z"/>
<path d="M1820 10 c0 -5 7 -10 16 -10 8 0 12 5 9 10 -3 6 -10 10 -16 10 -5 0
-9 -4 -9 -10z"/>
</g>
</svg>
